# xmcd CD database file
#
# Track frame offsets:
#	150
#	22657
#	52782
#	77232
#	103219
#	130627
#	147262
#	168668
#	193652
#
# Disc length: 2888 seconds
#
# Revision: 0
# Processed by: cddbd v1.5.2PL0 Copyright (c) Steve Scherf et al.
# Submitted via: CDex 1.70beta2
#
DISCID=6f0b4609
DTITLE=Daniel Strange - Life As I Hear It
DYEAR=1900
DGENRE=Jazz
TTITLE0=American Homecoming
TTITLE1=Criminal Intent
TTITLE2=Snowflakes
TTITLE3=Falling Leaves
TTITLE4=Dive Bomber
TTITLE5=Turbulence
TTITLE6=The Sad Side of Happy
TTITLE7=Miami Hoedown
TTITLE8=Where is Love?
EXTD=
EXTT0=
EXTT1=
EXTT2=
EXTT3=
EXTT4=
EXTT5=
EXTT6=
EXTT7=
EXTT8=
PLAYORDER=
